<svg id="svg" version="1.1" xmlns="http://www.w3.org/2000/svg" xmlns:xlink="http://www.w3.org/1999/xlink" width="400" height="482.7586206896551" viewBox="0, 0, 400,482.7586206896551"><g id="svgg"><path id="path0" d="M58.155 11.789 C 52.752 12.770,47.738 17.197,44.328 24.000 C 43.721 25.210,43.219 26.353,43.213 26.540 C 43.206 26.726,42.939 27.446,42.620 28.140 C 40.601 32.525,39.228 37.515,38.366 43.600 C 38.132 45.250,37.608 48.490,37.202 50.800 C 36.796 53.110,36.349 56.620,36.208 58.600 C 35.906 62.869,34.932 65.304,32.071 68.936 C 30.467 70.973,27.126 76.208,24.918 80.141 C 24.226 81.376,23.210 83.580,22.589 85.200 C 22.293 85.970,21.481 87.950,20.785 89.600 C 19.350 93.000,17.800 98.430,17.415 101.400 C 17.273 102.500,16.851 104.750,16.478 106.400 C 15.505 110.706,15.503 126.569,16.476 130.600 C 16.847 132.140,17.260 134.641,17.393 136.158 C 17.526 137.675,17.796 139.219,17.993 139.588 C 18.191 139.957,18.620 141.686,18.947 143.429 C 19.510 146.433,20.723 150.445,21.600 152.200 C 22.018 153.037,23.341 156.803,24.060 159.200 C 24.291 159.970,24.704 160.870,24.978 161.200 C 25.252 161.530,26.335 163.510,27.384 165.600 C 32.191 175.178,34.798 177.891,36.406 174.990 C 37.282 173.408,38.753 172.416,40.609 172.155 C 43.305 171.776,43.418 171.691,42.540 170.690 C 41.046 168.986,37.951 163.870,36.556 160.800 C 36.206 160.030,35.664 159.111,35.351 158.758 C 35.038 158.405,34.239 156.515,33.576 154.558 C 32.912 152.601,32.107 150.522,31.785 149.938 C 31.463 149.354,31.194 148.634,31.186 148.338 C 31.179 148.042,30.825 147.080,30.400 146.200 C 29.975 145.320,29.621 144.270,29.614 143.867 C 29.606 143.463,29.241 141.726,28.801 140.005 C 28.362 138.285,27.807 135.465,27.568 133.739 C 27.329 132.012,26.879 129.617,26.567 128.416 C 25.786 125.406,25.785 112.374,26.566 109.258 C 26.877 108.016,27.347 105.650,27.610 104.000 C 28.218 100.181,29.725 94.554,30.554 93.000 C 30.907 92.340,31.196 91.558,31.198 91.263 C 31.199 90.968,31.560 90.269,32.000 89.709 C 32.440 89.150,32.800 88.440,32.800 88.133 C 32.800 87.511,34.512 84.003,35.588 82.420 C 35.969 81.859,37.486 79.600,38.959 77.400 C 42.825 71.626,43.842 70.403,49.788 64.369 C 55.941 58.126,60.050 55.067,67.596 51.110 C 69.244 50.246,70.774 49.389,70.996 49.205 C 71.218 49.022,72.840 48.414,74.600 47.855 C 76.360 47.296,78.700 46.549,79.800 46.196 C 91.837 42.333,114.522 41.235,125.945 43.963 C 131.140 45.204,131.206 45.283,129.004 47.637 C 125.684 51.186,125.357 53.712,127.909 56.080 C 130.742 58.706,133.838 58.075,136.831 54.261 C 139.909 50.338,150.862 39.816,154.800 37.000 C 156.010 36.134,157.090 35.324,157.200 35.199 C 157.769 34.553,162.167 31.956,164.800 30.711 C 180.113 23.468,184.472 32.632,180.540 63.800 C 180.207 66.440,179.771 70.760,179.571 73.400 C 179.371 76.040,179.031 79.730,178.816 81.600 C 178.384 85.367,178.751 87.941,179.958 89.608 C 180.359 90.162,180.824 91.062,180.991 91.608 C 181.158 92.153,181.513 92.870,181.781 93.200 C 182.456 94.033,184.404 99.605,184.402 100.696 C 184.401 101.188,184.765 102.538,185.212 103.696 C 187.907 110.678,187.921 128.480,185.239 138.174 C 184.809 139.728,183.980 142.710,183.397 144.800 C 181.936 150.040,181.888 149.725,184.200 150.061 C 185.970 150.318,186.430 150.608,188.200 152.581 C 190.247 154.864,191.200 155.344,191.200 154.094 C 191.200 153.706,191.533 152.761,191.940 151.994 C 192.796 150.381,194.680 143.982,195.031 141.497 C 195.163 140.564,195.519 138.990,195.822 138.000 C 197.372 132.939,198.287 118.827,197.416 113.423 C 197.095 111.430,196.663 108.450,196.456 106.800 C 196.250 105.150,195.818 102.990,195.496 102.000 C 195.174 101.010,194.513 98.582,194.026 96.605 C 193.182 93.177,191.504 89.134,190.341 87.727 C 189.631 86.867,189.630 71.400,190.339 69.000 C 190.694 67.800,192.334 50.035,192.499 45.600 C 192.567 43.790,191.106 33.777,190.642 32.869 C 190.342 32.281,189.964 31.185,189.802 30.434 C 187.657 20.484,174.157 14.944,163.800 19.764 C 163.140 20.071,161.403 20.862,159.940 21.521 C 158.478 22.181,155.418 23.944,153.140 25.439 C 149.173 28.045,147.658 29.236,142.382 33.900 C 139.779 36.202,137.829 36.636,135.515 35.429 C 134.918 35.117,132.778 34.662,130.761 34.417 C 128.743 34.171,126.771 33.799,126.378 33.588 C 123.070 31.818,90.079 31.845,86.760 33.622 C 86.377 33.826,84.811 34.172,83.279 34.389 C 81.746 34.606,79.977 35.041,79.346 35.354 C 78.716 35.668,76.760 36.309,75.000 36.780 C 73.240 37.251,70.900 38.060,69.800 38.578 C 68.700 39.096,67.350 39.650,66.800 39.809 C 66.250 39.968,65.604 40.253,65.365 40.444 C 65.126 40.634,64.200 41.047,63.307 41.362 C 61.516 41.994,55.788 45.534,51.715 48.526 C 47.811 51.394,47.533 50.501,49.440 41.200 C 50.947 33.847,54.018 26.465,56.567 24.067 C 59.480 21.327,65.016 21.185,67.814 23.778 C 68.925 24.807,69.097 25.050,70.552 27.628 C 70.965 28.361,71.550 29.208,71.852 29.509 C 72.153 29.810,72.400 30.207,72.400 30.389 C 72.400 31.996,76.853 32.797,79.182 31.609 C 81.718 30.315,82.349 24.983,80.178 23.182 C 79.860 22.918,79.600 22.532,79.600 22.323 C 79.600 20.935,73.568 14.310,71.800 13.756 C 71.360 13.618,70.704 13.246,70.343 12.930 C 69.982 12.613,68.002 12.097,65.943 11.784 C 61.585 11.121,61.835 11.121,58.155 11.789 M42.926 104.007 C 41.139 104.719,40.373 111.041,41.823 113.111 C 42.668 114.318,45.164 114.345,46.238 113.158 C 48.976 110.132,46.276 102.671,42.926 104.007 M112.968 104.835 C 112.009 105.896,111.695 110.881,112.493 112.393 C 113.635 114.558,116.548 114.474,117.750 112.242 C 120.184 107.721,116.092 101.383,112.968 104.835 M72.514 108.656 C 69.894 109.235,68.862 113.039,70.798 114.976 C 71.890 116.069,79.547 116.222,80.598 115.172 C 81.981 113.792,81.678 109.623,80.153 109.037 C 79.312 108.715,73.548 108.427,72.514 108.656 M348.340 138.593 C 348.234 138.700,345.909 138.972,343.173 139.199 C 336.949 139.715,330.852 141.219,327.046 143.177 C 325.433 144.006,323.683 144.793,323.157 144.925 C 317.252 146.407,301.134 161.211,296.758 169.172 C 296.326 169.957,295.453 171.410,294.817 172.400 C 293.402 174.603,291.200 179.105,291.200 179.796 C 291.200 180.074,290.930 180.526,290.600 180.800 C 290.270 181.074,290.000 181.508,290.000 181.764 C 290.000 182.021,289.653 182.912,289.228 183.745 C 288.803 184.578,287.888 187.182,287.194 189.530 C 286.500 191.879,285.598 194.880,285.189 196.200 C 283.559 201.470,282.845 204.301,282.617 206.400 C 282.274 209.552,281.150 214.559,280.722 214.836 C 280.522 214.967,277.803 212.564,274.679 209.499 C 268.098 203.038,258.564 195.291,252.058 191.115 C 249.560 189.512,247.310 188.067,247.058 187.903 C 245.985 187.209,237.987 182.800,237.800 182.800 C 237.301 182.800,228.424 178.363,228.201 178.002 C 228.065 177.781,227.646 177.600,227.270 177.600 C 226.895 177.600,225.916 177.240,225.096 176.800 C 224.275 176.360,223.419 176.000,223.193 176.000 C 222.968 176.000,221.242 175.271,219.358 174.380 C 217.475 173.490,214.373 172.219,212.467 171.558 C 210.560 170.897,208.280 170.025,207.400 169.621 C 206.520 169.217,204.970 168.507,203.956 168.043 C 202.942 167.580,201.876 167.200,201.588 167.200 C 201.299 167.200,199.906 166.737,198.493 166.172 C 194.960 164.759,194.911 164.803,194.668 169.673 C 194.555 171.943,194.403 174.244,194.331 174.788 C 194.234 175.519,194.407 175.811,195.000 175.915 C 196.501 176.177,200.167 177.618,205.301 179.965 C 206.787 180.644,208.193 181.200,208.427 181.200 C 209.139 181.200,213.014 182.815,218.406 185.359 C 219.619 185.932,220.765 186.400,220.952 186.400 C 221.139 186.400,223.477 187.462,226.146 188.759 C 228.816 190.057,232.170 191.685,233.600 192.377 C 235.030 193.070,237.640 194.520,239.400 195.600 C 241.160 196.680,243.140 197.867,243.800 198.238 C 244.460 198.608,245.090 199.022,245.200 199.157 C 245.396 199.398,246.818 200.339,250.400 202.601 C 256.604 206.517,268.195 217.069,274.343 224.396 C 276.465 226.924,278.470 229.272,278.800 229.613 C 279.433 230.269,280.186 231.297,281.721 233.600 C 282.234 234.370,283.497 236.226,284.527 237.725 C 285.557 239.224,286.400 240.578,286.400 240.734 C 286.400 240.891,287.054 242.004,287.853 243.209 C 288.653 244.414,289.556 245.940,289.859 246.600 C 290.163 247.260,290.588 248.070,290.804 248.400 C 291.962 250.175,297.706 262.874,298.221 264.800 C 298.369 265.350,298.724 266.340,299.012 267.000 C 299.299 267.660,299.929 269.100,300.411 270.200 C 301.221 272.046,302.021 274.641,303.187 279.200 C 303.702 281.211,304.907 285.371,306.027 289.000 C 306.723 291.254,307.498 295.170,308.443 301.200 C 308.667 302.630,309.185 305.420,309.593 307.400 C 310.002 309.380,310.527 312.530,310.760 314.400 C 310.992 316.270,311.357 318.880,311.569 320.200 C 311.969 322.682,312.463 329.344,313.247 342.800 C 313.737 351.210,313.476 377.038,312.809 386.200 C 312.601 389.060,312.306 394.049,312.153 397.287 L 311.876 403.174 312.926 404.761 C 314.791 407.578,319.084 407.564,321.046 404.734 L 322.168 403.115 323.065 387.658 C 324.844 357.020,323.729 326.633,320.148 308.200 C 319.807 306.440,319.300 303.380,319.024 301.400 C 318.009 294.141,317.092 290.026,314.786 282.400 C 314.354 280.970,313.731 278.720,313.401 277.400 C 312.261 272.838,311.592 270.595,310.997 269.340 C 310.669 268.646,310.399 267.836,310.398 267.540 C 310.396 267.243,310.122 266.476,309.787 265.835 C 309.453 265.194,308.615 263.034,307.924 261.035 C 307.233 259.036,305.978 256.086,305.134 254.481 C 304.290 252.876,303.595 251.346,303.590 251.081 C 303.577 250.483,301.220 245.790,298.476 240.899 C 297.334 238.864,296.400 237.109,296.400 236.999 C 296.400 236.890,296.125 236.485,295.789 236.100 C 295.452 235.715,293.886 233.420,292.308 231.000 C 289.862 227.248,287.626 224.101,285.997 222.117 C 285.372 221.356,285.490 221.239,287.361 220.768 C 290.629 219.945,291.053 219.112,292.433 210.795 C 293.104 206.755,293.827 203.124,294.040 202.726 C 294.252 202.328,294.615 200.984,294.845 199.739 C 295.075 198.493,295.502 197.098,295.793 196.637 C 296.083 196.177,296.445 195.170,296.597 194.400 C 297.377 190.436,302.663 178.743,305.301 175.146 C 306.005 174.186,307.230 172.410,308.022 171.200 C 312.092 164.990,320.546 158.026,328.600 154.250 C 329.920 153.631,331.474 152.874,332.053 152.567 C 338.042 149.399,357.615 148.630,364.742 151.283 C 374.420 154.886,379.531 168.064,374.682 176.913 C 371.646 182.454,365.660 186.273,357.600 187.811 C 350.777 189.113,340.860 197.088,337.800 203.732 C 337.479 204.429,337.061 205.270,336.871 205.600 C 335.103 208.672,333.206 214.881,332.594 219.600 C 332.436 220.810,332.131 222.135,331.916 222.545 C 330.056 226.079,329.861 260.753,331.629 273.600 C 331.826 275.030,332.174 278.000,332.403 280.200 C 332.633 282.400,333.170 287.260,333.599 291.000 C 334.027 294.740,334.554 299.510,334.770 301.600 C 334.986 303.690,335.428 307.290,335.753 309.600 C 337.840 324.454,337.979 354.172,336.021 367.200 C 335.238 372.411,334.306 378.091,333.593 382.000 C 333.171 384.310,332.710 387.010,332.567 388.000 C 332.424 388.990,332.144 390.110,331.945 390.489 C 331.746 390.868,331.408 392.128,331.193 393.289 C 330.979 394.450,330.624 395.760,330.406 396.200 C 330.188 396.640,329.370 399.500,328.589 402.555 C 327.808 405.610,326.905 408.485,326.584 408.944 C 326.263 409.403,326.000 410.150,326.000 410.604 C 326.000 411.059,325.650 412.116,325.223 412.954 C 324.796 413.792,324.328 415.019,324.182 415.681 C 323.780 417.512,321.799 421.934,319.236 426.722 C 315.766 433.206,306.054 443.320,300.653 446.075 C 299.771 446.525,298.801 447.142,298.497 447.446 C 298.192 447.751,297.789 448.000,297.600 448.000 C 297.411 448.000,297.009 448.248,296.705 448.552 C 296.152 449.105,291.474 451.250,289.600 451.809 C 289.050 451.973,288.245 452.354,287.811 452.654 C 287.377 452.954,286.703 453.200,286.313 453.200 C 285.922 453.200,284.567 453.550,283.302 453.977 C 277.514 455.931,275.171 456.000,214.371 456.000 C 152.056 456.000,155.601 456.135,153.272 453.678 C 148.460 448.600,147.563 440.838,150.976 433.800 C 151.296 433.140,152.041 431.520,152.632 430.200 C 155.400 424.015,163.076 416.142,167.444 415.007 C 175.058 413.028,176.899 410.889,174.729 406.543 C 172.984 403.050,169.920 402.863,161.515 405.736 C 159.849 406.306,159.501 406.313,158.515 405.797 C 157.902 405.477,156.090 404.663,154.490 403.988 C 148.853 401.613,144.264 397.796,138.832 390.962 C 138.641 390.721,137.910 389.281,137.208 387.762 C 136.506 386.243,135.682 384.530,135.376 383.955 C 132.235 378.053,131.185 360.163,133.464 351.400 C 133.808 350.080,134.250 348.190,134.448 347.200 C 134.823 345.320,135.977 341.612,137.252 338.192 C 137.663 337.088,138.015 335.918,138.033 335.592 C 138.050 335.267,138.635 333.974,139.333 332.720 C 140.030 331.466,141.301 329.126,142.157 327.520 C 143.013 325.914,144.363 323.743,145.157 322.695 C 145.951 321.647,147.111 320.117,147.735 319.295 C 152.464 313.069,164.886 302.947,171.740 299.735 C 172.433 299.411,173.720 298.710,174.600 298.178 C 177.445 296.459,182.695 294.223,186.800 292.982 C 187.790 292.682,189.320 292.167,190.200 291.836 C 191.080 291.506,192.227 291.227,192.750 291.218 C 194.715 291.181,198.324 289.192,198.776 287.896 C 201.487 280.120,193.886 278.292,181.513 283.745 C 180.695 284.105,179.885 284.401,179.713 284.401 C 178.854 284.405,172.444 287.290,170.000 288.772 C 169.670 288.972,168.230 289.715,166.800 290.422 C 165.370 291.129,163.570 292.185,162.800 292.769 C 162.030 293.352,160.230 294.534,158.800 295.395 C 153.688 298.472,145.812 305.325,140.639 311.200 C 138.961 313.106,137.767 314.754,134.300 319.951 C 132.770 322.245,127.651 333.166,126.871 335.800 C 126.415 337.340,125.671 339.860,125.217 341.400 C 124.763 342.940,124.226 345.100,124.024 346.200 C 123.823 347.300,123.456 348.730,123.209 349.379 C 122.610 350.950,121.617 360.896,121.609 365.400 C 121.593 374.449,122.756 381.234,125.248 386.626 C 125.662 387.521,126.000 388.471,126.000 388.738 C 126.000 391.031,132.849 400.771,137.031 404.425 C 140.574 407.521,143.782 409.997,144.263 410.007 C 145.151 410.026,150.400 413.859,150.400 414.488 C 150.400 414.723,149.577 416.014,148.572 417.358 C 145.723 421.163,143.751 424.444,142.383 427.653 C 141.692 429.274,140.895 431.146,140.611 431.814 C 137.857 438.293,137.812 446.222,140.492 452.447 C 140.972 453.562,141.180 454.633,141.017 455.147 L 140.746 456.000 116.347 456.000 C 99.095 456.000,91.691 455.869,91.074 455.551 C 89.966 454.982,88.000 453.160,88.000 452.703 C 88.000 452.512,87.618 451.518,87.152 450.495 C 85.824 447.580,86.431 443.546,89.091 437.600 C 92.940 428.998,94.915 427.201,100.519 427.199 C 104.496 427.197,106.150 426.596,107.339 424.719 C 109.649 421.074,107.585 417.273,103.115 416.939 C 98.406 416.588,98.800 417.088,98.800 411.456 C 98.800 405.841,97.777 390.002,97.220 387.000 C 97.016 385.900,96.741 383.380,96.610 381.400 C 96.478 379.420,96.195 376.990,95.981 376.000 C 95.767 375.010,95.333 372.040,95.018 369.400 C 94.702 366.760,94.178 363.250,93.854 361.600 C 91.947 351.888,91.129 346.751,89.970 337.200 C 89.743 335.330,89.373 332.900,89.148 331.800 C 88.923 330.700,88.558 328.450,88.338 326.800 C 88.117 325.150,87.591 322.130,87.168 320.089 C 86.746 318.048,86.400 315.668,86.400 314.801 C 86.400 312.786,85.282 305.001,84.749 303.307 C 83.475 299.255,76.436 299.297,75.419 303.363 C 75.004 305.020,76.067 318.673,76.751 320.471 C 76.955 321.008,77.327 323.147,77.577 325.224 C 77.827 327.301,78.210 329.667,78.427 330.482 C 78.786 331.830,79.323 335.584,81.042 348.760 C 81.369 351.269,81.788 353.609,81.972 353.960 C 82.157 354.312,82.429 355.770,82.577 357.200 C 82.725 358.630,83.181 361.420,83.589 363.400 C 84.278 366.736,85.536 376.009,87.008 388.600 C 87.853 395.829,88.524 409.680,88.301 415.288 L 88.115 419.977 86.516 422.088 C 81.156 429.164,79.442 432.575,76.824 441.367 C 75.834 444.691,75.732 449.540,76.600 452.000 C 76.930 452.935,77.200 454.218,77.200 454.850 L 77.200 456.000 62.380 456.000 C 44.871 456.000,45.655 456.168,44.415 452.156 C 43.455 449.045,43.392 447.192,44.167 444.771 C 44.478 443.797,44.832 442.545,44.952 441.989 C 45.215 440.773,50.080 433.405,51.321 432.342 C 52.696 431.165,58.649 427.200,59.045 427.198 C 61.778 427.184,63.289 421.209,61.175 418.772 C 60.455 417.941,60.398 417.181,60.377 408.039 C 60.343 393.340,59.060 371.915,57.871 366.200 C 57.551 364.660,57.169 362.105,57.022 360.521 C 56.876 358.938,56.406 356.419,55.978 354.923 C 55.550 353.427,55.199 351.572,55.197 350.801 C 55.196 350.031,54.856 347.960,54.443 346.200 C 54.029 344.440,53.563 342.100,53.406 341.000 C 53.249 339.900,52.928 338.640,52.693 338.200 C 52.458 337.760,52.045 336.320,51.777 335.000 C 51.508 333.680,51.095 332.060,50.858 331.400 C 50.622 330.740,50.048 328.580,49.582 326.600 C 49.116 324.620,48.501 322.010,48.215 320.800 C 47.929 319.590,47.501 318.060,47.264 317.400 C 46.409 315.022,45.539 312.159,45.015 310.000 C 44.401 307.468,42.290 299.504,41.145 295.400 C 40.302 292.379,38.997 285.787,38.413 281.600 C 36.813 270.121,36.617 267.758,36.618 260.000 C 36.619 246.537,38.218 236.839,42.520 224.181 C 43.720 220.651,44.834 216.961,44.995 215.981 C 45.155 215.002,45.569 213.881,45.913 213.491 C 46.569 212.750,44.569 210.000,43.374 210.000 C 43.116 210.000,41.692 209.063,40.208 207.917 C 37.314 205.684,36.400 205.766,36.400 208.261 C 36.400 208.761,36.018 210.190,35.552 211.437 C 35.085 212.684,34.464 214.625,34.172 215.752 C 32.680 221.496,32.328 222.680,31.837 223.600 C 31.543 224.150,31.174 225.320,31.016 226.200 C 30.858 227.080,30.576 227.985,30.390 228.210 C 27.798 231.349,25.310 258.717,26.609 269.802 C 26.944 272.661,27.479 277.340,27.798 280.200 C 28.499 286.471,29.871 294.361,30.366 294.963 C 30.564 295.203,30.853 296.300,31.009 297.400 C 31.164 298.500,31.535 299.940,31.831 300.600 C 32.127 301.260,32.666 303.150,33.029 304.800 C 34.485 311.430,34.782 312.621,35.517 314.766 C 37.058 319.268,37.723 321.453,38.268 323.800 C 39.877 330.732,40.424 332.911,41.384 336.200 C 41.961 338.180,42.787 341.600,43.219 343.800 C 43.651 346.000,44.171 348.340,44.375 349.000 C 44.578 349.660,44.870 351.366,45.022 352.791 C 45.175 354.216,45.525 356.020,45.800 356.800 C 46.075 357.581,46.423 359.565,46.572 361.209 C 46.722 362.854,47.098 365.280,47.409 366.600 C 47.720 367.920,48.165 371.700,48.398 375.000 C 48.631 378.300,48.992 382.530,49.199 384.400 C 49.407 386.270,49.700 394.935,49.852 403.656 L 50.128 419.513 45.140 424.456 C 42.397 427.175,39.709 430.120,39.167 431.000 C 38.624 431.880,37.956 432.960,37.682 433.400 C 37.408 433.840,36.900 434.830,36.552 435.600 C 36.205 436.370,35.671 437.281,35.367 437.624 C 32.398 440.972,33.003 454.328,36.351 459.342 C 41.474 467.016,35.375 466.367,102.616 466.389 C 132.967 466.399,177.690 466.481,202.000 466.571 C 264.698 466.804,280.724 466.347,285.912 464.179 C 286.674 463.861,287.683 463.600,288.155 463.600 C 288.626 463.600,289.639 463.265,290.406 462.856 C 291.173 462.447,292.250 461.984,292.800 461.827 C 295.059 461.183,299.111 459.368,300.757 458.263 C 301.723 457.614,303.530 456.559,304.773 455.918 C 306.016 455.277,308.105 453.848,309.416 452.741 C 314.147 448.749,316.569 446.575,317.773 445.239 C 318.448 444.490,320.042 442.780,321.316 441.439 C 322.590 440.097,323.918 438.460,324.266 437.800 C 324.615 437.140,325.499 435.860,326.231 434.955 C 328.003 432.767,333.343 421.721,334.331 418.200 C 334.763 416.660,335.404 414.860,335.756 414.200 C 336.107 413.540,336.396 412.757,336.398 412.460 C 336.399 412.164,336.669 411.354,336.997 410.660 C 337.696 409.187,338.567 406.134,339.412 402.200 C 339.743 400.660,340.259 398.770,340.560 398.000 C 341.394 395.862,342.739 390.525,343.232 387.400 C 343.475 385.860,343.909 383.610,344.197 382.400 C 344.484 381.190,344.837 378.760,344.980 377.000 C 345.124 375.240,345.491 372.810,345.797 371.600 C 346.103 370.390,346.546 366.700,346.780 363.400 C 347.015 360.100,347.382 356.230,347.595 354.800 C 348.102 351.407,348.107 329.981,347.602 325.600 C 347.386 323.730,347.022 319.410,346.792 316.000 C 346.563 312.590,346.120 308.450,345.807 306.800 C 345.495 305.150,345.130 302.180,344.996 300.200 C 344.862 298.220,344.494 294.710,344.176 292.400 C 343.859 290.090,343.333 285.320,343.008 281.800 C 342.682 278.280,342.243 274.320,342.032 273.000 C 341.330 268.614,340.291 246.780,340.547 241.800 C 341.576 221.792,343.547 213.089,348.748 205.600 C 350.611 202.916,356.546 198.628,359.000 198.192 C 359.880 198.035,360.905 197.747,361.279 197.551 C 361.652 197.355,363.272 196.935,364.879 196.617 C 370.330 195.538,378.149 190.394,381.118 185.932 C 381.493 185.369,382.284 184.185,382.875 183.302 C 388.112 175.477,387.977 161.401,382.587 153.224 C 380.903 150.669,377.199 146.400,376.667 146.400 C 376.521 146.400,375.546 145.796,374.501 145.057 C 372.280 143.489,367.831 141.200,367.002 141.200 C 366.686 141.200,365.625 140.927,364.644 140.594 C 362.042 139.711,348.842 138.091,348.340 138.593 " stroke="none" fill="#4e4e4e" fill-rule="evenodd"></path><path id="path1" d="M0.000 241.200 L 0.000 482.400 200.000 482.400 L 400.000 482.400 400.000 241.200 L 400.000 0.000 200.000 0.000 L 0.000 0.000 0.000 241.200 M65.943 11.784 C 68.002 12.097,69.982 12.613,70.343 12.930 C 70.704 13.246,71.360 13.618,71.800 13.756 C 73.568 14.310,79.600 20.935,79.600 22.323 C 79.600 22.532,79.860 22.918,80.178 23.182 C 82.349 24.983,81.718 30.315,79.182 31.609 C 76.853 32.797,72.400 31.996,72.400 30.389 C 72.400 30.207,72.153 29.810,71.852 29.509 C 71.550 29.208,70.965 28.361,70.552 27.628 C 69.097 25.050,68.925 24.807,67.814 23.778 C 65.016 21.185,59.480 21.327,56.567 24.067 C 54.018 26.465,50.947 33.847,49.440 41.200 C 47.533 50.501,47.811 51.394,51.715 48.526 C 55.788 45.534,61.516 41.994,63.307 41.362 C 64.200 41.047,65.126 40.634,65.365 40.444 C 65.604 40.253,66.250 39.968,66.800 39.809 C 67.350 39.650,68.700 39.096,69.800 38.578 C 70.900 38.060,73.240 37.251,75.000 36.780 C 76.760 36.309,78.716 35.668,79.346 35.354 C 79.977 35.041,81.746 34.606,83.279 34.389 C 84.811 34.172,86.377 33.826,86.760 33.622 C 90.079 31.845,123.070 31.818,126.378 33.588 C 126.771 33.799,128.743 34.171,130.761 34.417 C 132.778 34.662,134.918 35.117,135.515 35.429 C 137.829 36.636,139.779 36.202,142.382 33.900 C 147.658 29.236,149.173 28.045,153.140 25.439 C 155.418 23.944,158.478 22.181,159.940 21.521 C 161.403 20.862,163.140 20.071,163.800 19.764 C 174.157 14.944,187.657 20.484,189.802 30.434 C 189.964 31.185,190.342 32.281,190.642 32.869 C 191.106 33.777,192.567 43.790,192.499 45.600 C 192.334 50.035,190.694 67.800,190.339 69.000 C 189.630 71.400,189.631 86.867,190.341 87.727 C 191.504 89.134,193.182 93.177,194.026 96.605 C 194.513 98.582,195.174 101.010,195.496 102.000 C 195.818 102.990,196.250 105.150,196.456 106.800 C 196.663 108.450,197.095 111.430,197.416 113.423 C 198.287 118.827,197.372 132.939,195.822 138.000 C 195.519 138.990,195.163 140.564,195.031 141.497 C 194.680 143.982,192.796 150.381,191.940 151.994 C 190.996 153.773,190.996 156.261,191.941 157.810 C 192.346 158.475,192.912 159.735,193.198 160.610 C 194.528 164.679,195.908 165.766,201.567 167.200 C 202.318 167.390,203.578 167.852,204.367 168.227 C 207.666 169.795,209.178 170.417,212.467 171.558 C 214.373 172.219,217.475 173.490,219.358 174.380 C 221.242 175.271,222.968 176.000,223.193 176.000 C 223.419 176.000,224.275 176.360,225.096 176.800 C 225.916 177.240,226.895 177.600,227.270 177.600 C 227.646 177.600,228.065 177.781,228.201 178.002 C 228.424 178.363,237.301 182.800,237.800 182.800 C 237.987 182.800,245.985 187.209,247.058 187.903 C 247.310 188.067,249.560 189.512,252.058 191.115 C 258.564 195.291,268.098 203.038,274.679 209.499 C 277.803 212.564,280.522 214.967,280.722 214.836 C 281.150 214.559,282.274 209.552,282.617 206.400 C 282.845 204.301,283.559 201.470,285.189 196.200 C 285.598 194.880,286.500 191.879,287.194 189.530 C 287.888 187.182,288.803 184.578,289.228 183.745 C 289.653 182.912,290.000 182.021,290.000 181.764 C 290.000 181.508,290.270 181.074,290.600 180.800 C 290.930 180.526,291.200 180.074,291.200 179.796 C 291.200 179.105,293.402 174.603,294.817 172.400 C 295.453 171.410,296.326 169.957,296.758 169.172 C 301.134 161.211,317.252 146.407,323.157 144.925 C 323.683 144.793,325.427 144.009,327.033 143.183 C 330.576 141.360,336.605 139.756,341.200 139.412 C 343.070 139.272,345.770 138.980,347.200 138.762 C 350.152 138.312,361.403 139.494,364.643 140.594 C 365.625 140.927,366.686 141.200,367.002 141.200 C 367.831 141.200,372.280 143.489,374.501 145.057 C 375.546 145.796,376.521 146.400,376.667 146.400 C 377.199 146.400,380.903 150.669,382.587 153.224 C 387.977 161.401,388.112 175.477,382.875 183.302 C 382.284 184.185,381.493 185.369,381.118 185.932 C 378.149 190.394,370.330 195.538,364.879 196.617 C 363.272 196.935,361.652 197.355,361.279 197.551 C 360.905 197.747,359.880 198.035,359.000 198.192 C 356.546 198.628,350.611 202.916,348.748 205.600 C 343.547 213.089,341.576 221.792,340.547 241.800 C 340.291 246.780,341.330 268.614,342.032 273.000 C 342.243 274.320,342.682 278.280,343.008 281.800 C 343.333 285.320,343.859 290.090,344.176 292.400 C 344.494 294.710,344.862 298.220,344.996 300.200 C 345.130 302.180,345.495 305.150,345.807 306.800 C 346.120 308.450,346.563 312.590,346.792 316.000 C 347.022 319.410,347.386 323.730,347.602 325.600 C 348.107 329.981,348.102 351.407,347.595 354.800 C 347.382 356.230,347.015 360.100,346.780 363.400 C 346.546 366.700,346.103 370.390,345.797 371.600 C 345.491 372.810,345.124 375.240,344.980 377.000 C 344.837 378.760,344.484 381.190,344.197 382.400 C 343.909 383.610,343.475 385.860,343.232 387.400 C 342.739 390.525,341.394 395.862,340.560 398.000 C 340.259 398.770,339.743 400.660,339.412 402.200 C 338.567 406.134,337.696 409.187,336.997 410.660 C 336.669 411.354,336.399 412.164,336.398 412.460 C 336.396 412.757,336.107 413.540,335.756 414.200 C 335.404 414.860,334.763 416.660,334.331 418.200 C 333.343 421.721,328.003 432.767,326.231 434.955 C 325.499 435.860,324.615 437.140,324.266 437.800 C 323.918 438.460,322.590 440.097,321.316 441.439 C 320.042 442.780,318.448 444.490,317.773 445.239 C 316.569 446.575,314.147 448.749,309.416 452.741 C 308.105 453.848,306.016 455.277,304.773 455.918 C 303.530 456.559,301.723 457.614,300.757 458.263 C 299.111 459.368,295.059 461.183,292.800 461.827 C 292.250 461.984,291.173 462.447,290.406 462.856 C 289.639 463.265,288.626 463.600,288.155 463.600 C 287.683 463.600,286.674 463.861,285.912 464.179 C 280.724 466.347,264.698 466.804,202.000 466.571 C 177.690 466.481,132.967 466.399,102.616 466.389 C 35.375 466.367,41.474 467.016,36.351 459.342 C 33.003 454.328,32.398 440.972,35.367 437.624 C 35.671 437.281,36.205 436.370,36.552 435.600 C 36.900 434.830,37.408 433.840,37.682 433.400 C 37.956 432.960,38.624 431.880,39.167 431.000 C 39.709 430.120,42.397 427.175,45.140 424.456 L 50.128 419.513 49.852 403.656 C 49.700 394.935,49.407 386.270,49.199 384.400 C 48.992 382.530,48.631 378.300,48.398 375.000 C 48.165 371.700,47.720 367.920,47.409 366.600 C 47.098 365.280,46.722 362.854,46.572 361.209 C 46.423 359.565,46.075 357.581,45.800 356.800 C 45.525 356.020,45.175 354.216,45.022 352.791 C 44.870 351.366,44.578 349.660,44.375 349.000 C 44.171 348.340,43.651 346.000,43.219 343.800 C 42.787 341.600,41.961 338.180,41.384 336.200 C 40.424 332.911,39.877 330.732,38.268 323.800 C 37.723 321.453,37.058 319.268,35.517 314.766 C 34.782 312.621,34.485 311.430,33.029 304.800 C 32.666 303.150,32.127 301.260,31.831 300.600 C 31.535 299.940,31.164 298.500,31.009 297.400 C 30.853 296.300,30.564 295.203,30.366 294.963 C 29.871 294.361,28.499 286.471,27.798 280.200 C 27.479 277.340,26.944 272.661,26.609 269.802 C 25.310 258.717,27.798 231.349,30.390 228.210 C 30.576 227.985,30.855 227.080,31.009 226.200 C 31.163 225.320,31.516 224.237,31.792 223.794 C 32.069 223.351,32.423 222.361,32.580 221.594 C 32.736 220.827,33.219 219.030,33.652 217.600 C 34.593 214.492,36.351 208.641,36.810 207.090 C 37.197 205.782,36.885 204.530,35.483 201.765 C 33.808 198.458,32.896 191.076,33.551 186.109 C 33.834 183.959,34.165 181.081,34.287 179.714 L 34.507 177.228 31.898 173.314 C 30.463 171.161,28.431 167.690,27.383 165.600 C 26.334 163.510,25.252 161.530,24.978 161.200 C 24.704 160.870,24.291 159.970,24.060 159.200 C 23.341 156.803,22.018 153.037,21.600 152.200 C 20.723 150.445,19.510 146.433,18.947 143.429 C 18.620 141.686,18.191 139.957,17.993 139.588 C 17.796 139.219,17.526 137.675,17.393 136.158 C 17.260 134.641,16.847 132.140,16.476 130.600 C 15.503 126.569,15.505 110.706,16.478 106.400 C 16.851 104.750,17.273 102.500,17.415 101.400 C 17.800 98.430,19.350 93.000,20.785 89.600 C 21.481 87.950,22.293 85.970,22.589 85.200 C 23.210 83.580,24.226 81.376,24.918 80.141 C 27.126 76.208,30.467 70.973,32.071 68.936 C 34.932 65.304,35.906 62.869,36.208 58.600 C 36.349 56.620,36.796 53.110,37.202 50.800 C 37.608 48.490,38.132 45.250,38.366 43.600 C 39.228 37.515,40.601 32.525,42.620 28.140 C 42.939 27.446,43.206 26.726,43.213 26.540 C 43.219 26.353,43.721 25.210,44.328 24.000 C 47.738 17.197,52.752 12.770,58.155 11.789 C 61.835 11.121,61.585 11.121,65.943 11.784 M169.800 28.674 C 166.311 29.746,158.390 33.849,157.200 35.199 C 157.090 35.324,156.010 36.134,154.800 37.000 C 150.862 39.816,139.909 50.338,136.831 54.261 C 133.838 58.075,130.742 58.706,127.909 56.080 C 125.357 53.712,125.684 51.186,129.004 47.637 C 131.206 45.283,131.140 45.204,125.945 43.963 C 114.522 41.235,91.837 42.333,79.800 46.196 C 78.700 46.549,76.360 47.296,74.600 47.855 C 72.840 48.414,71.218 49.022,70.996 49.205 C 70.774 49.389,69.244 50.246,67.596 51.110 C 56.192 57.089,46.763 65.745,38.959 77.400 C 37.486 79.600,35.969 81.859,35.588 82.420 C 34.512 84.003,32.800 87.511,32.800 88.133 C 32.800 88.440,32.440 89.150,32.000 89.709 C 31.560 90.269,31.199 90.968,31.198 91.263 C 31.196 91.558,30.907 92.340,30.554 93.000 C 29.725 94.554,28.218 100.181,27.610 104.000 C 27.347 105.650,26.877 108.016,26.566 109.258 C 25.785 112.374,25.786 125.406,26.567 128.416 C 26.879 129.617,27.329 132.012,27.568 133.739 C 27.807 135.465,28.362 138.285,28.801 140.005 C 29.241 141.726,29.606 143.463,29.614 143.867 C 29.621 144.270,29.975 145.320,30.400 146.200 C 30.825 147.080,31.179 148.042,31.186 148.338 C 31.194 148.634,31.463 149.354,31.785 149.938 C 32.107 150.522,32.912 152.601,33.576 154.558 C 34.239 156.515,35.038 158.405,35.351 158.758 C 35.664 159.111,36.206 160.030,36.556 160.800 C 38.273 164.580,41.798 170.137,43.660 171.999 C 45.290 173.628,53.646 177.600,55.444 177.600 C 55.765 177.600,56.427 177.860,56.914 178.178 C 57.401 178.495,58.520 178.938,59.400 179.162 C 60.280 179.386,62.080 179.920,63.400 180.350 C 72.488 183.307,90.427 184.629,101.883 183.184 C 112.894 181.796,119.225 180.538,125.200 178.548 C 128.015 177.611,130.768 176.777,133.660 175.985 C 135.124 175.584,136.654 175.066,137.060 174.834 C 138.089 174.248,142.463 172.332,145.772 171.018 C 147.296 170.412,148.826 169.768,149.172 169.587 C 149.517 169.405,151.325 168.510,153.188 167.598 C 156.941 165.762,161.690 163.180,162.000 162.806 C 162.110 162.674,163.280 162.036,164.600 161.389 C 165.920 160.742,167.968 159.580,169.150 158.806 C 170.333 158.033,171.596 157.220,171.956 157.000 C 174.961 155.166,175.827 154.611,176.000 154.408 C 176.110 154.279,177.100 153.521,178.200 152.723 C 181.727 150.165,182.275 149.315,183.564 144.400 C 184.055 142.530,184.808 139.728,185.238 138.174 C 187.921 128.486,187.907 110.679,185.212 103.696 C 184.765 102.538,184.401 101.188,184.402 100.696 C 184.404 99.605,182.456 94.033,181.781 93.200 C 181.513 92.870,181.158 92.153,180.991 91.608 C 180.824 91.062,180.359 90.162,179.958 89.608 C 178.751 87.941,178.384 85.367,178.816 81.600 C 179.031 79.730,179.371 76.040,179.571 73.400 C 179.771 70.760,180.207 66.440,180.540 63.800 C 183.984 36.500,180.578 25.360,169.800 28.674 M46.200 104.853 C 47.352 105.961,47.379 111.897,46.238 113.158 C 43.804 115.848,41.200 113.743,41.200 109.085 C 41.200 104.013,43.395 102.155,46.200 104.853 M117.433 105.100 C 119.983 108.971,117.625 115.007,114.052 113.751 C 111.902 112.995,111.154 106.840,112.968 104.835 C 114.133 103.548,116.502 103.688,117.433 105.100 M80.153 109.037 C 81.678 109.623,81.981 113.792,80.598 115.172 C 79.547 116.222,71.890 116.069,70.798 114.976 C 68.862 113.039,69.894 109.235,72.514 108.656 C 73.548 108.427,79.312 108.715,80.153 109.037 M342.200 150.016 C 339.199 150.409,333.345 151.890,332.007 152.594 C 331.453 152.886,329.920 153.631,328.600 154.250 C 320.546 158.026,312.092 164.990,308.022 171.200 C 307.230 172.410,306.005 174.186,305.301 175.146 C 302.663 178.743,297.377 190.436,296.597 194.400 C 296.445 195.170,296.083 196.177,295.793 196.637 C 295.502 197.098,295.075 198.493,294.845 199.739 C 294.615 200.984,294.252 202.328,294.040 202.726 C 293.827 203.124,293.104 206.755,292.433 210.795 C 291.053 219.112,290.629 219.945,287.361 220.768 C 285.490 221.239,285.372 221.356,285.997 222.117 C 287.626 224.101,289.862 227.248,292.308 231.000 C 293.886 233.420,295.452 235.715,295.789 236.100 C 296.125 236.485,296.400 236.890,296.400 236.999 C 296.400 237.109,297.334 238.864,298.476 240.899 C 301.220 245.790,303.577 250.483,303.590 251.081 C 303.595 251.346,304.290 252.876,305.134 254.481 C 305.978 256.086,307.233 259.036,307.924 261.035 C 308.615 263.034,309.453 265.194,309.787 265.835 C 310.122 266.476,310.396 267.243,310.398 267.540 C 310.399 267.836,310.669 268.646,310.997 269.340 C 311.592 270.595,312.261 272.838,313.401 277.400 C 313.731 278.720,314.354 280.970,314.786 282.400 C 317.092 290.026,318.009 294.141,319.024 301.400 C 319.300 303.380,319.807 306.440,320.148 308.200 C 323.729 326.633,324.844 357.020,323.065 387.658 L 322.168 403.115 321.046 404.734 C 319.084 407.564,314.791 407.578,312.926 404.761 L 311.876 403.174 312.153 397.287 C 312.306 394.049,312.601 389.060,312.809 386.200 C 313.476 377.038,313.737 351.210,313.247 342.800 C 312.463 329.344,311.969 322.682,311.569 320.200 C 311.357 318.880,310.992 316.270,310.760 314.400 C 310.527 312.530,310.002 309.380,309.593 307.400 C 309.185 305.420,308.667 302.630,308.443 301.200 C 307.498 295.170,306.723 291.254,306.027 289.000 C 304.907 285.371,303.702 281.211,303.187 279.200 C 302.021 274.641,301.221 272.046,300.411 270.200 C 299.929 269.100,299.299 267.660,299.012 267.000 C 298.724 266.340,298.369 265.350,298.221 264.800 C 297.706 262.874,291.962 250.175,290.804 248.400 C 290.588 248.070,290.163 247.260,289.859 246.600 C 289.556 245.940,288.653 244.414,287.853 243.209 C 287.054 242.004,286.400 240.891,286.400 240.734 C 286.400 240.578,285.557 239.224,284.527 237.725 C 283.497 236.226,282.234 234.370,281.721 233.600 C 280.186 231.297,279.433 230.269,278.800 229.613 C 278.470 229.272,276.465 226.924,274.343 224.396 C 268.195 217.069,256.604 206.517,250.400 202.601 C 246.818 200.339,245.396 199.398,245.200 199.157 C 245.090 199.022,244.460 198.608,243.800 198.238 C 243.140 197.867,241.160 196.680,239.400 195.600 C 237.640 194.520,235.030 193.070,233.600 192.377 C 232.170 191.685,228.816 190.057,226.146 188.759 C 223.477 187.462,221.139 186.400,220.952 186.400 C 220.765 186.400,219.619 185.932,218.406 185.359 C 213.014 182.815,209.139 181.200,208.427 181.200 C 208.193 181.200,206.787 180.644,205.301 179.965 C 200.275 177.668,196.809 176.308,194.839 175.861 C 193.869 175.641,192.496 176.757,190.694 179.231 C 183.605 188.962,169.854 200.146,159.200 204.844 C 158.650 205.087,157.930 205.450,157.600 205.651 C 157.270 205.852,156.370 206.292,155.600 206.628 C 154.830 206.965,153.660 207.486,153.000 207.785 C 147.910 210.093,138.496 213.375,135.809 213.778 C 134.741 213.938,133.492 214.309,133.033 214.603 C 132.575 214.897,131.300 215.265,130.200 215.420 C 129.100 215.575,127.883 215.867,127.495 216.068 C 124.765 217.483,102.032 220.026,90.898 220.161 C 82.868 220.258,83.124 220.128,83.281 224.021 L 83.400 226.964 85.800 228.348 C 95.680 234.049,98.322 245.685,91.705 254.359 C 89.345 257.454,85.822 259.848,83.055 260.238 C 82.145 260.367,80.824 260.647,80.119 260.860 C 76.759 261.881,69.379 259.525,66.158 256.403 C 57.612 248.121,59.539 234.032,69.962 228.582 C 72.312 227.353,72.800 226.501,72.800 223.624 C 72.800 218.869,73.215 219.160,64.200 217.601 C 61.340 217.106,58.550 216.478,58.000 216.204 C 57.450 215.931,56.299 215.580,55.442 215.424 C 54.584 215.269,53.504 214.903,53.042 214.610 C 52.579 214.318,51.570 213.949,50.800 213.791 C 50.030 213.633,48.923 213.260,48.340 212.962 C 46.781 212.166,45.387 213.361,45.020 215.807 C 44.870 216.809,43.755 220.547,42.543 224.114 C 38.215 236.847,36.619 246.513,36.618 260.000 C 36.617 267.758,36.813 270.121,38.413 281.600 C 38.997 285.787,40.302 292.379,41.145 295.400 C 42.290 299.504,44.401 307.468,45.015 310.000 C 45.539 312.159,46.409 315.022,47.264 317.400 C 47.501 318.060,47.929 319.590,48.215 320.800 C 48.501 322.010,49.116 324.620,49.582 326.600 C 50.048 328.580,50.622 330.740,50.858 331.400 C 51.095 332.060,51.508 333.680,51.777 335.000 C 52.045 336.320,52.458 337.760,52.693 338.200 C 52.928 338.640,53.249 339.900,53.406 341.000 C 53.563 342.100,54.029 344.440,54.443 346.200 C 54.856 347.960,55.196 350.031,55.197 350.801 C 55.199 351.572,55.550 353.427,55.978 354.923 C 56.406 356.419,56.876 358.938,57.022 360.521 C 57.169 362.105,57.551 364.660,57.871 366.200 C 59.060 371.915,60.343 393.340,60.377 408.039 C 60.399 417.250,60.450 417.936,61.192 418.790 C 63.290 421.210,61.764 427.184,59.045 427.198 C 58.649 427.200,52.696 431.165,51.321 432.342 C 50.080 433.405,45.215 440.773,44.952 441.989 C 44.832 442.545,44.478 443.797,44.167 444.771 C 43.392 447.192,43.455 449.045,44.415 452.156 C 45.655 456.168,44.871 456.000,62.380 456.000 L 77.200 456.000 77.200 454.850 C 77.200 454.218,76.930 452.935,76.600 452.000 C 75.732 449.540,75.834 444.691,76.824 441.367 C 79.442 432.575,81.156 429.164,86.516 422.088 L 88.115 419.977 88.301 415.288 C 88.524 409.680,87.853 395.829,87.008 388.600 C 85.536 376.009,84.278 366.736,83.589 363.400 C 83.181 361.420,82.725 358.630,82.577 357.200 C 82.429 355.770,82.157 354.312,81.972 353.960 C 81.788 353.609,81.369 351.269,81.042 348.760 C 79.323 335.584,78.786 331.830,78.427 330.482 C 78.210 329.667,77.827 327.301,77.577 325.224 C 77.327 323.147,76.955 321.008,76.751 320.471 C 76.067 318.673,75.004 305.020,75.419 303.363 C 76.436 299.297,83.475 299.255,84.749 303.307 C 85.282 305.001,86.400 312.786,86.400 314.801 C 86.400 315.668,86.746 318.048,87.168 320.089 C 87.591 322.130,88.117 325.150,88.338 326.800 C 88.558 328.450,88.923 330.700,89.148 331.800 C 89.373 332.900,89.743 335.330,89.970 337.200 C 91.129 346.751,91.947 351.888,93.854 361.600 C 94.178 363.250,94.702 366.760,95.018 369.400 C 95.333 372.040,95.767 375.010,95.981 376.000 C 96.195 376.990,96.478 379.420,96.610 381.400 C 96.741 383.380,97.016 385.900,97.220 387.000 C 97.777 390.002,98.800 405.841,98.800 411.456 C 98.800 417.088,98.406 416.588,103.115 416.939 C 107.585 417.273,109.649 421.074,107.339 424.719 C 106.150 426.596,104.496 427.197,100.519 427.199 C 95.595 427.201,93.543 428.663,90.693 434.200 C 86.777 441.810,85.620 447.132,87.152 450.495 C 87.618 451.518,88.000 452.512,88.000 452.703 C 88.000 453.160,89.966 454.982,91.074 455.551 C 91.691 455.869,99.095 456.000,116.347 456.000 L 140.746 456.000 141.017 455.147 C 141.180 454.633,140.972 453.562,140.492 452.447 C 137.812 446.222,137.857 438.293,140.611 431.814 C 140.895 431.146,141.692 429.274,142.383 427.653 C 143.751 424.444,145.723 421.163,148.572 417.358 C 149.577 416.014,150.400 414.723,150.400 414.488 C 150.400 413.859,145.151 410.026,144.263 410.007 C 143.782 409.997,140.574 407.521,137.031 404.425 C 132.849 400.771,126.000 391.031,126.000 388.738 C 126.000 388.471,125.662 387.521,125.248 386.626 C 122.756 381.234,121.593 374.449,121.609 365.400 C 121.617 360.896,122.610 350.950,123.209 349.379 C 123.456 348.730,123.823 347.300,124.024 346.200 C 124.226 345.100,124.763 342.940,125.217 341.400 C 125.671 339.860,126.415 337.340,126.871 335.800 C 127.651 333.166,132.770 322.245,134.300 319.951 C 137.767 314.754,138.961 313.106,140.639 311.200 C 145.812 305.325,153.688 298.472,158.800 295.395 C 160.230 294.534,162.030 293.352,162.800 292.769 C 163.570 292.185,165.370 291.129,166.800 290.422 C 168.230 289.715,169.670 288.972,170.000 288.772 C 172.444 287.290,178.854 284.405,179.713 284.401 C 179.885 284.401,180.695 284.105,181.513 283.745 C 193.886 278.292,201.487 280.120,198.776 287.896 C 198.324 289.192,194.715 291.181,192.750 291.218 C 192.227 291.227,191.080 291.506,190.200 291.836 C 189.320 292.167,187.790 292.682,186.800 292.982 C 182.695 294.223,177.445 296.459,174.600 298.178 C 173.720 298.710,172.433 299.411,171.740 299.735 C 164.886 302.947,152.464 313.069,147.735 319.295 C 147.111 320.117,145.951 321.647,145.157 322.695 C 144.363 323.743,143.013 325.914,142.157 327.520 C 141.301 329.126,140.030 331.466,139.333 332.720 C 138.635 333.974,138.050 335.267,138.033 335.592 C 138.015 335.918,137.663 337.088,137.252 338.192 C 135.977 341.612,134.823 345.320,134.448 347.200 C 134.250 348.190,133.808 350.080,133.464 351.400 C 131.185 360.163,132.235 378.053,135.376 383.955 C 135.682 384.530,136.506 386.243,137.208 387.762 C 137.910 389.281,138.641 390.721,138.832 390.962 C 144.264 397.796,148.853 401.613,154.490 403.988 C 156.090 404.663,157.902 405.477,158.515 405.797 C 159.501 406.313,159.849 406.306,161.515 405.736 C 169.920 402.863,172.984 403.050,174.729 406.543 C 176.899 410.889,175.058 413.028,167.444 415.007 C 163.076 416.142,155.400 424.015,152.632 430.200 C 152.041 431.520,151.296 433.140,150.976 433.800 C 147.563 440.838,148.460 448.600,153.272 453.678 C 155.601 456.135,152.056 456.000,214.371 456.000 C 275.171 456.000,277.514 455.931,283.302 453.977 C 284.567 453.550,285.922 453.200,286.313 453.200 C 286.703 453.200,287.377 452.954,287.811 452.654 C 288.245 452.354,289.050 451.973,289.600 451.809 C 291.474 451.250,296.152 449.105,296.705 448.552 C 297.009 448.248,297.411 448.000,297.600 448.000 C 297.789 448.000,298.192 447.751,298.497 447.446 C 298.801 447.142,299.771 446.525,300.653 446.075 C 306.054 443.320,315.766 433.206,319.236 426.722 C 321.799 421.934,323.780 417.512,324.182 415.681 C 324.328 415.019,324.796 413.792,325.223 412.954 C 325.650 412.116,326.000 411.059,326.000 410.604 C 326.000 410.150,326.263 409.403,326.584 408.944 C 326.905 408.485,327.808 405.610,328.589 402.555 C 329.370 399.500,330.188 396.640,330.406 396.200 C 330.624 395.760,330.979 394.450,331.193 393.289 C 331.408 392.128,331.746 390.868,331.945 390.489 C 332.144 390.110,332.424 388.990,332.567 388.000 C 332.710 387.010,333.171 384.310,333.593 382.000 C 334.306 378.091,335.238 372.411,336.021 367.200 C 337.979 354.172,337.840 324.454,335.753 309.600 C 335.428 307.290,334.986 303.690,334.770 301.600 C 334.554 299.510,334.027 294.740,333.599 291.000 C 333.170 287.260,332.633 282.400,332.403 280.200 C 332.174 278.000,331.826 275.030,331.629 273.600 C 329.861 260.753,330.056 226.079,331.916 222.545 C 332.131 222.135,332.436 220.810,332.594 219.600 C 333.206 214.881,335.103 208.672,336.871 205.600 C 337.061 205.270,337.479 204.429,337.800 203.732 C 340.860 197.088,350.777 189.113,357.600 187.811 C 364.490 186.496,368.982 184.043,373.068 179.362 C 379.152 172.393,376.807 159.222,368.400 153.137 C 364.269 150.147,352.184 148.707,342.200 150.016 " stroke="none" fill="transparent" fill-rule="evenodd"></path><path id="path2" d="M181.200 149.959 C 181.200 150.191,180.255 151.117,179.100 152.015 C 177.945 152.914,176.730 153.867,176.400 154.132 C 175.881 154.551,174.336 155.547,171.956 157.000 C 171.596 157.220,170.333 158.033,169.150 158.806 C 167.968 159.580,165.920 160.742,164.600 161.389 C 163.280 162.036,162.110 162.674,162.000 162.806 C 161.690 163.180,156.941 165.762,153.188 167.598 C 151.325 168.510,149.517 169.405,149.172 169.587 C 148.826 169.768,147.296 170.412,145.772 171.018 C 142.463 172.332,138.089 174.248,137.060 174.834 C 136.654 175.066,135.124 175.584,133.660 175.985 C 130.768 176.777,128.015 177.611,125.200 178.548 C 119.225 180.538,112.894 181.796,101.883 183.184 C 90.427 184.629,72.488 183.307,63.400 180.350 C 62.080 179.920,60.280 179.386,59.400 179.162 C 58.520 178.938,57.401 178.495,56.914 178.178 C 56.427 177.860,55.765 177.600,55.444 177.600 C 54.081 177.600,45.826 173.890,44.058 172.483 C 42.180 170.988,37.689 172.466,36.455 174.985 C 36.155 175.598,35.592 176.182,35.205 176.283 C 34.642 176.430,34.458 177.043,34.290 179.333 C 34.174 180.910,33.844 183.959,33.557 186.109 C 32.894 191.080,33.803 198.451,35.487 201.768 C 36.055 202.886,36.627 204.184,36.760 204.654 C 37.003 205.520,42.561 210.000,43.391 210.000 C 43.640 210.000,44.441 210.617,45.172 211.371 C 45.903 212.126,46.794 212.742,47.151 212.741 C 47.939 212.739,51.351 213.838,53.000 214.625 C 53.660 214.939,54.830 215.313,55.600 215.456 C 56.370 215.598,57.450 215.936,58.000 216.208 C 58.550 216.479,61.340 217.106,64.200 217.601 C 73.215 219.160,72.800 218.869,72.800 223.624 C 72.800 226.501,72.312 227.353,69.962 228.582 C 59.539 234.032,57.612 248.121,66.158 256.403 C 69.379 259.525,76.759 261.881,80.119 260.860 C 80.824 260.647,82.145 260.367,83.055 260.238 C 85.822 259.848,89.345 257.454,91.705 254.359 C 98.322 245.685,95.680 234.049,85.800 228.348 L 83.400 226.964 83.281 224.021 C 83.124 220.128,82.868 220.258,90.898 220.161 C 102.032 220.026,124.765 217.483,127.495 216.068 C 127.883 215.867,129.100 215.575,130.200 215.420 C 131.300 215.265,132.575 214.897,133.033 214.603 C 133.492 214.309,134.741 213.938,135.809 213.778 C 138.496 213.375,147.910 210.093,153.000 207.785 C 153.660 207.486,154.830 206.965,155.600 206.628 C 156.370 206.292,157.270 205.852,157.600 205.651 C 157.930 205.450,158.650 205.087,159.200 204.844 C 169.854 200.146,183.605 188.962,190.694 179.231 C 191.082 178.698,191.952 177.678,192.627 176.964 C 194.756 174.712,195.862 165.651,194.309 163.184 C 193.968 162.643,193.462 161.484,193.184 160.610 C 192.906 159.735,192.346 158.475,191.941 157.810 C 191.535 157.144,191.202 156.195,191.201 155.700 C 191.201 155.203,190.953 154.800,190.649 154.800 C 190.345 154.800,189.257 153.817,188.230 152.615 C 186.773 150.909,186.038 150.376,184.882 150.188 C 184.067 150.055,182.905 149.854,182.300 149.741 C 181.665 149.623,181.200 149.715,181.200 149.959 " stroke="none" fill="#ce0771" fill-rule="evenodd"></path></g></svg>