<svg id="svg" xmlns="http://www.w3.org/2000/svg" xmlns:xlink="http://www.w3.org/1999/xlink" width="400" height="498.8235294117647" viewBox="0, 0, 400,498.8235294117647" version="1.1"><g id="svgg"><path id="path0" d="M195.800 12.277 C 168.387 13.781,165.245 14.363,141.200 22.385 C 118.662 29.904,99.954 41.166,81.000 58.625 C 67.961 70.635,51.514 91.107,44.708 103.800 C 35.363 121.229,30.729 133.743,25.676 155.200 C 24.426 160.508,22.309 185.413,22.327 194.600 C 22.466 267.297,53.684 341.449,115.536 416.000 C 129.416 432.731,167.013 469.414,183.840 482.644 C 193.760 490.444,204.477 490.895,214.793 483.945 C 225.110 476.995,249.081 455.277,264.401 439.000 C 316.497 383.652,354.785 319.079,369.160 262.330 C 375.619 236.829,379.457 204.838,378.057 188.161 C 377.819 185.323,377.256 178.590,376.807 173.200 C 375.428 156.663,374.941 154.309,368.542 133.200 C 365.356 122.690,364.591 120.886,357.797 107.874 C 350.482 93.863,350.034 93.222,334.976 75.200 C 323.918 61.965,306.900 46.462,297.249 40.830 C 288.552 35.755,264.346 24.029,258.937 22.271 C 242.761 17.013,234.576 15.134,223.800 14.202 C 219.840 13.860,214.080 13.327,211.000 13.017 C 204.369 12.351,199.108 12.095,195.800 12.277 M212.800 60.804 C 226.457 61.441,226.922 61.522,241.348 65.784 C 252.306 69.021,264.639 75.312,274.200 82.542 C 288.675 93.487,296.591 101.315,306.582 114.561 C 317.886 129.549,327.951 154.194,329.387 170.400 C 330.537 183.384,330.387 200.241,328.974 217.000 C 327.532 234.101,327.416 234.619,317.530 267.800 C 313.390 281.697,312.979 282.687,303.141 302.400 C 291.890 324.946,292.943 323.170,275.800 348.503 C 260.901 370.520,258.255 374.216,252.944 380.426 C 250.981 382.722,247.041 387.389,244.188 390.798 C 236.781 399.650,223.317 413.908,214.291 422.457 C 200.526 435.496,199.859 435.490,185.860 422.200 C 172.685 409.693,155.981 391.186,139.900 371.282 C 136.555 367.141,111.309 329.862,108.286 324.600 C 106.600 321.665,95.319 298.391,88.773 284.341 C 86.271 278.971,82.809 268.980,80.407 260.200 C 79.926 258.440,78.746 254.390,77.785 251.200 C 72.925 235.068,71.498 225.409,70.384 201.101 C 69.208 175.455,72.204 155.471,79.654 139.254 C 96.366 102.874,124.889 77.049,162.381 64.351 C 172.454 60.940,189.712 59.726,212.800 60.804 M192.400 113.441 C 182.531 114.573,171.619 117.918,164.200 122.088 C 143.903 133.496,132.721 146.549,126.003 166.674 C 122.499 177.174,122.200 179.644,122.525 195.400 C 122.783 207.890,122.914 208.665,126.308 217.800 C 136.181 244.367,156.210 263.266,179.730 268.206 C 182.408 268.768,186.670 269.805,189.200 270.508 C 196.211 272.458,203.247 272.395,210.600 270.316 C 213.460 269.507,217.330 268.544,219.200 268.177 C 223.748 267.283,227.109 266.046,233.800 262.805 C 255.137 252.467,269.251 235.010,276.651 209.800 C 278.459 203.640,278.208 179.798,276.273 174.000 C 264.601 139.018,250.618 125.174,216.000 114.323 C 213.475 113.532,196.987 112.916,192.400 113.441 " stroke="none" fill="#4e4e4e" fill-rule="evenodd"></path><path id="path1" d="M0.000 249.400 L 0.000 498.800 200.000 498.800 L 400.000 498.800 400.000 249.400 L 400.000 0.000 200.000 0.000 L 0.000 0.000 0.000 249.400 M211.000 13.017 C 214.080 13.327,219.840 13.860,223.800 14.202 C 234.576 15.134,242.761 17.013,258.937 22.271 C 264.346 24.029,288.552 35.755,297.249 40.830 C 311.126 48.928,337.960 76.041,350.341 94.474 C 356.750 104.015,365.047 121.667,368.542 133.200 C 374.941 154.309,375.428 156.663,376.807 173.200 C 377.256 178.590,377.819 185.323,378.057 188.161 C 379.457 204.838,375.619 236.829,369.160 262.330 C 354.785 319.079,316.497 383.652,264.401 439.000 C 249.081 455.277,225.110 476.995,214.793 483.945 C 204.477 490.895,193.760 490.444,183.840 482.644 C 160.546 464.329,121.753 424.987,103.925 401.600 C 54.978 337.388,30.599 282.309,23.632 220.200 C 21.571 201.824,22.630 168.136,25.676 155.200 C 30.729 133.743,35.363 121.229,44.708 103.800 C 52.928 88.472,71.859 65.970,87.777 52.609 C 104.612 38.479,121.357 29.005,141.200 22.385 C 163.466 14.957,166.076 14.373,182.200 13.214 C 199.746 11.952,200.351 11.948,211.000 13.017 M187.800 60.670 C 169.566 61.292,161.882 63.302,143.800 72.179 C 115.509 86.069,93.527 109.055,79.654 139.254 C 72.204 155.471,69.208 175.455,70.384 201.101 C 71.498 225.409,72.925 235.068,77.785 251.200 C 78.746 254.390,79.926 258.440,80.407 260.200 C 82.809 268.980,86.271 278.971,88.773 284.341 C 95.319 298.391,106.600 321.665,108.286 324.600 C 111.309 329.862,136.555 367.141,139.900 371.282 C 155.981 391.186,172.685 409.693,185.860 422.200 C 199.859 435.490,200.526 435.496,214.291 422.457 C 223.317 413.908,236.781 399.650,244.188 390.798 C 247.041 387.389,250.981 382.722,252.944 380.426 C 258.255 374.216,260.901 370.520,275.800 348.503 C 292.943 323.170,291.890 324.946,303.141 302.400 C 312.979 282.687,313.390 281.697,317.530 267.800 C 325.858 239.848,326.822 236.178,327.774 228.800 C 330.474 207.872,330.930 178.420,328.756 165.400 C 323.360 133.093,298.898 97.733,268.800 78.733 C 256.322 70.856,249.690 68.039,231.750 62.995 C 224.586 60.980,206.597 60.029,187.800 60.670 M216.000 114.323 C 250.618 125.174,264.601 139.018,276.273 174.000 C 278.208 179.798,278.459 203.640,276.651 209.800 C 269.251 235.010,255.137 252.467,233.800 262.805 C 227.109 266.046,223.748 267.283,219.200 268.177 C 217.330 268.544,213.460 269.507,210.600 270.316 C 203.247 272.395,196.211 272.458,189.200 270.508 C 186.670 269.805,182.408 268.768,179.730 268.206 C 156.210 263.266,136.181 244.367,126.308 217.800 C 122.914 208.665,122.783 207.890,122.525 195.400 C 122.200 179.644,122.499 177.174,126.003 166.674 C 134.313 141.779,152.404 124.435,178.455 116.389 C 183.944 114.693,186.868 114.076,192.400 113.441 C 196.987 112.916,213.475 113.532,216.000 114.323 " stroke="none" fill="#fbfbfb" fill-rule="evenodd"></path></g></svg>