<svg id="svg" xmlns="http://www.w3.org/2000/svg" xmlns:xlink="http://www.w3.org/1999/xlink" width="400" height="528.5714285714286" viewBox="0, 0, 400,528.5714285714286" version="1.1"><g id="svgg"><path id="path0" d="M188.200 27.390 C 186.440 27.671,182.840 28.363,180.200 28.928 C 177.560 29.493,172.160 30.494,168.200 31.152 C 162.608 32.082,159.213 32.929,153.000 34.943 C 148.600 36.370,142.901 38.080,140.335 38.744 C 134.722 40.196,132.805 41.132,128.552 44.495 C 126.766 45.907,123.796 47.930,121.952 48.991 C 102.650 60.094,85.771 74.256,73.555 89.600 C 65.828 99.304,62.645 103.652,60.813 107.000 C 59.849 108.760,57.386 113.122,55.339 116.692 C 47.142 130.987,43.095 141.059,39.186 156.896 C 32.374 184.499,31.385 199.867,34.806 225.000 C 35.226 228.080,35.764 232.490,36.003 234.800 C 36.241 237.110,36.865 241.250,37.389 244.000 C 37.913 246.750,38.632 251.070,38.987 253.600 C 40.062 261.255,40.764 264.283,43.207 271.800 C 44.493 275.760,46.358 282.172,47.350 286.048 C 49.269 293.543,53.528 304.684,58.801 316.000 C 60.287 319.190,62.154 323.375,62.950 325.300 C 67.119 335.388,75.941 352.162,81.199 360.000 C 82.897 362.530,85.614 367.210,87.238 370.400 C 90.116 376.053,98.096 388.411,104.850 397.677 C 111.418 406.686,124.972 424.655,126.962 426.992 C 132.043 432.955,148.582 451.445,152.554 455.600 C 154.971 458.130,158.608 462.270,160.634 464.800 C 165.034 470.293,166.601 471.820,171.600 475.489 C 173.690 477.023,177.578 480.344,180.239 482.868 C 182.901 485.393,187.841 489.677,191.217 492.387 C 203.120 501.943,204.487 501.879,218.000 491.130 C 222.290 487.717,227.747 483.625,230.127 482.035 C 235.231 478.627,236.828 477.108,239.553 473.070 C 242.611 468.538,245.101 465.659,252.418 458.200 C 258.041 452.466,273.279 435.617,280.642 426.992 C 291.835 413.878,315.868 379.450,321.017 369.152 C 322.269 366.648,324.687 362.530,326.390 360.000 C 331.678 352.145,339.791 336.727,344.453 325.672 C 345.318 323.622,347.257 319.302,348.763 316.072 C 354.594 303.571,358.147 294.185,360.451 285.200 C 361.326 281.790,363.097 275.760,364.387 271.800 C 366.835 264.287,367.537 261.265,368.613 253.600 C 368.968 251.070,369.687 246.750,370.211 244.000 C 370.735 241.250,371.359 237.110,371.597 234.800 C 371.836 232.490,372.374 228.080,372.794 225.000 C 375.745 203.318,375.414 190.331,371.396 170.277 C 366.610 146.382,361.524 132.340,351.519 115.400 C 350.090 112.980,348.046 109.380,346.977 107.400 C 337.890 90.574,311.696 64.388,292.800 53.240 C 275.225 42.870,266.291 38.967,247.000 33.229 C 228.371 27.688,202.454 25.114,188.200 27.390 M216.497 110.388 C 234.202 113.168,233.257 112.887,244.058 118.581 C 269.063 131.764,284.284 150.725,290.634 176.600 C 296.593 200.887,295.092 215.643,284.449 237.400 C 271.001 264.890,251.906 281.260,224.795 288.543 C 214.183 291.393,193.469 291.395,182.800 288.548 C 161.515 282.866,144.185 270.688,132.211 253.000 C 116.825 230.271,110.770 207.871,114.533 187.600 C 121.005 152.738,135.869 132.550,166.450 117.086 C 174.928 112.799,175.340 112.697,197.600 109.393 C 202.535 108.660,206.988 108.895,216.497 110.388 " stroke="none" fill="#fc0886" fill-rule="evenodd"></path></g></svg>